REM DIRINDEX 1\2,1\3,1\4,1\5,1\6
REM DIRNAME cjc030,folder01,folder02,folder03,folder04,folder05
TITLE ""
FILE "Disc4Track01.mp3" MP3
  TRACK 01 AUDIO
    TITLE "3:cjc030_06174"
    INDEX 01 00:00:00
  TRACK 02 AUDIO
    TITLE "0:"
    INDEX 01 00:01:05
  TRACK 03 AUDIO
    TITLE "4:cjc030_06175"
    INDEX 01 00:01:15
  TRACK 04 AUDIO
    TITLE "0:"
    INDEX 01 00:03:25
  TRACK 05 AUDIO
    TITLE "5:cjc030_06176"
    INDEX 01 00:03:35
  TRACK 06 AUDIO
    TITLE "0:"
    INDEX 01 00:04:42
  TRACK 07 AUDIO
    TITLE "6:cjc030_06177"
    INDEX 01 00:04:54
  TRACK 08 AUDIO
    TITLE "0:"
    INDEX 01 00:09:20
  TRACK 09 AUDIO
    TITLE "3:cjc030_06178"
    INDEX 01 00:09:67
  TRACK 10 AUDIO
    TITLE "0:"
    INDEX 01 00:11:05
  TRACK 11 AUDIO
    TITLE "4:cjc030_06179"
    INDEX 01 00:11:15
  TRACK 12 AUDIO
    TITLE "0:"
    INDEX 01 00:13:65
  TRACK 13 AUDIO
    TITLE "5:cjc030_06180"
    INDEX 01 00:13:71
  TRACK 14 AUDIO
    TITLE "0:"
    INDEX 01 00:15:11
  TRACK 15 AUDIO
    TITLE "3:cjc030_06181"
    INDEX 01 00:15:68
  TRACK 16 AUDIO
    TITLE "0:"
    INDEX 01 00:16:59
  TRACK 17 AUDIO
    TITLE "4:cjc030_06182"
    INDEX 01 00:16:69
  TRACK 18 AUDIO
    TITLE "0:"
    INDEX 01 00:18:70
  TRACK 19 AUDIO
    TITLE "5:cjc030_06183"
    INDEX 01 00:19:03
  TRACK 20 AUDIO
    TITLE "0:"
    INDEX 01 00:19:71
  TRACK 21 AUDIO
    TITLE "6:cjc030_06184"
    INDEX 01 00:20:08
  TRACK 22 AUDIO
    TITLE "0:"
    INDEX 01 00:21:60
  TRACK 23 AUDIO
    TITLE "3:cjc030_06185"
    INDEX 01 00:22:34
  TRACK 24 AUDIO
    TITLE "0:"
    INDEX 01 00:23:38
  TRACK 25 AUDIO
    TITLE "4:cjc030_06186"
    INDEX 01 00:23:46
  TRACK 26 AUDIO
    TITLE "0:"
    INDEX 01 00:24:39
  TRACK 27 AUDIO
    TITLE "5:cjc030_06187"
    INDEX 01 00:24:47
  TRACK 28 AUDIO
    TITLE "0:"
    INDEX 01 00:25:54
  TRACK 29 AUDIO
    TITLE "6:cjc030_06188"
    INDEX 01 00:25:66
  TRACK 30 AUDIO
    TITLE "0:"
    INDEX 01 00:27:51
  TRACK 31 AUDIO
    TITLE "3:cjc030_06189"
    INDEX 01 00:28:23
  TRACK 32 AUDIO
    TITLE "0:"
    INDEX 01 00:29:21
  TRACK 33 AUDIO
    TITLE "4:cjc030_06190"
    INDEX 01 00:29:27
  TRACK 34 AUDIO
    TITLE "0:"
    INDEX 01 00:30:32
  TRACK 35 AUDIO
    TITLE "5:cjc030_06191"
    INDEX 01 00:30:40
  TRACK 36 AUDIO
    TITLE "0:"
    INDEX 01 00:31:37
  TRACK 37 AUDIO
    TITLE "6:cjc030_06192"
    INDEX 01 00:31:49
  TRACK 38 AUDIO
    TITLE "0:"
    INDEX 01 00:33:44
  TRACK 39 AUDIO
    TITLE "3:cjc030_06193"
    INDEX 01 00:34:18
  TRACK 40 AUDIO
    TITLE "0:"
    INDEX 01 00:35:21
  TRACK 41 AUDIO
    TITLE "4:cjc030_06194"
    INDEX 01 00:35:31
  TRACK 42 AUDIO
    TITLE "0:"
    INDEX 01 00:36:33
  TRACK 43 AUDIO
    TITLE "5:cjc030_06195"
    INDEX 01 00:36:40
  TRACK 44 AUDIO
    TITLE "0:"
    INDEX 01 00:37:44
  TRACK 45 AUDIO
    TITLE "3:cjc030_06196"
    INDEX 01 00:38:26
  TRACK 46 AUDIO
    TITLE "0:"
    INDEX 01 00:39:23
  TRACK 47 AUDIO
    TITLE "4:cjc030_06197"
    INDEX 01 00:39:33
  TRACK 48 AUDIO
    TITLE "0:"
    INDEX 01 00:40:72
  TRACK 49 AUDIO
    TITLE "5:cjc030_06198"
    INDEX 01 00:41:06
  TRACK 50 AUDIO
    TITLE "0:"
    INDEX 01 00:42:04
  TRACK 51 AUDIO
    TITLE "3:cjc030_06199"
    INDEX 01 00:42:63
  TRACK 52 AUDIO
    TITLE "0:"
    INDEX 01 00:43:58
  TRACK 53 AUDIO
    TITLE "4:cjc030_06200"
    INDEX 01 00:43:66
  TRACK 54 AUDIO
    TITLE "0:"
    INDEX 01 00:46:00
  TRACK 55 AUDIO
    TITLE "5:cjc030_06201"
    INDEX 01 00:46:07
  TRACK 56 AUDIO
    TITLE "0:"
    INDEX 01 00:47:03
  TRACK 57 AUDIO
    TITLE "6:cjc030_06202"
    INDEX 01 00:47:17
  TRACK 58 AUDIO
    TITLE "0:"
    INDEX 01 00:52:12
  TRACK 59 AUDIO
    TITLE "3:cjc030_06203"
    INDEX 01 00:52:61
  TRACK 60 AUDIO
    TITLE "0:"
    INDEX 01 00:53:57
  TRACK 61 AUDIO
    TITLE "4:cjc030_06204"
    INDEX 01 00:53:64
  TRACK 62 AUDIO
    TITLE "0:"
    INDEX 01 00:55:26
  TRACK 63 AUDIO
    TITLE "5:cjc030_06205"
    INDEX 01 00:55:36
  TRACK 64 AUDIO
    TITLE "0:"
    INDEX 01 00:56:31
  TRACK 65 AUDIO
    TITLE "6:cjc030_06206"
    INDEX 01 00:56:43
  TRACK 66 AUDIO
    TITLE "0:"
    INDEX 01 01:00:49
  TRACK 67 AUDIO
    TITLE "3:cjc030_06207"
    INDEX 01 01:01:25
  TRACK 68 AUDIO
    TITLE "0:"
    INDEX 01 01:02:42
  TRACK 69 AUDIO
    TITLE "4:cjc030_06208"
    INDEX 01 01:02:50
  TRACK 70 AUDIO
    TITLE "0:"
    INDEX 01 01:04:43
  TRACK 71 AUDIO
    TITLE "5:cjc030_06209"
    INDEX 01 01:04:52
  TRACK 72 AUDIO
    TITLE "0:"
    INDEX 01 01:05:68
  TRACK 73 AUDIO
    TITLE "3:cjc030_06210"
    INDEX 01 01:06:49
  TRACK 74 AUDIO
    TITLE "0:"
    INDEX 01 01:07:51
  TRACK 75 AUDIO
    TITLE "4:cjc030_06211"
    INDEX 01 01:07:59
  TRACK 76 AUDIO
    TITLE "0:"
    INDEX 01 01:09:36
  TRACK 77 AUDIO
    TITLE "5:cjc030_06212"
    INDEX 01 01:09:44
  TRACK 78 AUDIO
    TITLE "0:"
    INDEX 01 01:10:47
